<svg width="24" height="24" viewBox="0 0 24 24" fill="none" xmlns="http://www.w3.org/2000/svg">
<path opacity="0.987" fill-rule="evenodd" clip-rule="evenodd" d="M10.8134 1.59151C11.9009 1.47001 12.5444 1.47001 13.7129 1.59151C15.7813 1.89765 17.6987 2.85373 19.1879 4.32151C18.1816 5.27271 17.1885 6.2378 16.2089 7.21651C14.3329 5.62651 12.2389 5.25951 9.92687 6.11551C8.23087 6.89551 7.04987 8.15951 6.38387 9.90751C5.29554 9.09725 4.22137 8.26813 3.16188 7.42051C3.08824 7.38175 3.00415 7.36756 2.92188 7.38001C4.60487 4.13501 7.23488 2.20501 10.8119 1.59001" fill="#F44336"/>
<path opacity="0.997" fill-rule="evenodd" clip-rule="evenodd" d="M2.91889 7.38001C3.00389 7.36701 3.08439 7.38051 3.16039 7.42051C4.21989 8.26813 5.29405 9.09726 6.38239 9.90751C6.21113 10.5886 6.10317 11.2841 6.05989 11.985C6.09689 12.663 6.20439 13.3285 6.38239 13.9815L2.99989 16.674C1.52689 13.596 1.49989 10.498 2.91889 7.38001Z" fill="#FFC107"/>
<path opacity="0.999" fill-rule="evenodd" clip-rule="evenodd" d="M19.0276 19.935C17.9744 19.0062 16.8718 18.1349 15.7246 17.325C16.8746 16.513 17.5726 15.399 17.8186 13.983H12.1831V10.0695C15.4331 10.0425 18.6816 10.07 21.9286 10.152C22.5446 13.497 21.8331 16.513 19.7941 19.2C19.5517 19.4577 19.2948 19.7031 19.0276 19.935Z" fill="#448AFF"/>
<path opacity="0.993" fill-rule="evenodd" clip-rule="evenodd" d="M6.3825 13.983C7.6125 17.04 9.8675 18.467 13.1475 18.264C14.0683 18.1574 14.951 17.8358 15.7245 17.325C16.8725 18.137 17.9735 19.007 19.0275 19.935C17.3575 21.4357 15.2282 22.3261 12.987 22.461C12.4778 22.5017 11.9662 22.5017 11.457 22.461C7.639 22.011 4.82 20.082 3 16.674L6.3825 13.983Z" fill="#43A047"/>
</svg>
