<svg width="80" height="40" viewBox="0 0 80 40" fill="none" xmlns="http://www.w3.org/2000/svg">
<path d="M39.999 22.6084H40.001C40.001 22.6465 39.9993 22.6846 39.999 22.7227C40.0604 29.3935 45.4865 34.7822 52.1719 34.7822V40C45.9307 40 40.4588 36.7113 37.3906 31.7734C34.3963 36.5925 29.1126 39.8406 23.0586 39.9941L22.6094 40H16.0879V34.7822H22.6094C29.2947 34.7822 34.7199 29.3935 34.7812 22.7227C34.781 22.6846 34.7803 22.6465 34.7803 22.6084H34.7812V0H39.999V22.6084ZM67.8271 0.078125C67.8692 6.76564 73.3026 12.1738 80 12.1738V17.3916C75.2601 17.3916 70.9641 15.4941 67.8271 12.4189V40H62.6094V0.0742188C62.6093 0.0494906 62.6084 0.0247524 62.6084 0H67.8271V0.078125ZM32.1738 0V16.0869C32.1738 24.9715 24.9715 32.1738 16.0869 32.1738C7.20235 32.1738 0 24.9715 0 16.0869C2.38551e-05 7.20237 7.20237 2.38535e-05 16.0869 0H32.1738ZM60 5.21777H47.8262V14.7822C47.8262 21.5057 53.2765 26.9561 60 26.9561V32.1738C50.395 32.1738 42.6084 24.3872 42.6084 14.7822V0H60V5.21777ZM16.0869 5.21777C10.0839 5.2178 5.2178 10.0839 5.21777 16.0869C5.21777 22.09 10.0838 26.956 16.0869 26.9561C22.09 26.9561 26.9561 22.09 26.9561 16.0869V5.21777H16.0869Z" fill="black"/>
</svg>
