<svg width="24" height="24" viewBox="0 0 24 24" fill="none" xmlns="http://www.w3.org/2000/svg">
<path d="M12.0002 2.49374C17.9664 2.49374 22.8002 6.30749 22.8002 11.01C22.8002 15.7125 17.9664 19.5262 12.0002 19.5262C11.3439 19.5262 10.7027 19.4812 10.0802 19.3912C9.4577 19.83 5.8577 22.3575 5.51645 22.4062C5.51645 22.4062 5.3777 22.4587 5.2577 22.3912C5.1377 22.3237 5.1602 22.14 5.1602 22.14C5.1977 21.8925 6.0977 18.795 6.2627 18.2212C3.22145 16.7175 1.2002 14.0475 1.2002 11.0062C1.2002 6.30374 6.03395 2.49374 12.0002 2.49374ZM4.4327 8.46374C4.0952 8.46374 3.82145 8.73749 3.82145 9.07499C3.82145 9.41249 4.0952 9.68624 4.4327 9.68624H5.40395V13.3875C5.40395 13.7175 5.6852 13.9837 6.02645 13.9837C6.3677 13.9837 6.64895 13.7175 6.64895 13.3875V9.68624H7.6202C7.9577 9.68624 8.23145 9.41249 8.23145 9.07499C8.23145 8.73749 7.9577 8.46374 7.6202 8.46374H4.42895H4.4327ZM9.7127 8.46374C9.3077 8.47124 8.98895 8.77874 8.88395 9.07874L7.3952 13.0012C7.2077 13.59 7.3727 13.8075 7.54145 13.8862C7.66145 13.9425 7.8002 13.9725 7.93895 13.9725C8.1977 13.9725 8.39645 13.8675 8.45645 13.6987L8.76395 12.8887H10.6652L10.9727 13.695C11.0327 13.8637 11.2314 13.9687 11.4902 13.9687C11.6289 13.9687 11.7639 13.9387 11.8877 13.8825C12.0602 13.8037 12.2252 13.5862 12.0339 12.9975L10.5452 9.07874C10.4402 8.77874 10.1214 8.47124 9.7127 8.46374ZM16.4964 8.46374C16.1514 8.46374 15.8739 8.74499 15.8739 9.08624V13.35C15.8739 13.695 16.1552 13.9725 16.4964 13.9725C16.8377 13.9725 17.1189 13.6912 17.1189 13.35V11.9925L17.3364 11.775L18.7952 13.71C18.9152 13.8675 19.0952 13.9575 19.2939 13.9575C19.4289 13.9575 19.5602 13.9162 19.6689 13.8337C19.8002 13.7325 19.8864 13.5862 19.9089 13.4212C19.9314 13.2562 19.8902 13.0912 19.7889 12.96L18.2552 10.9275L19.6764 9.50999C19.7739 9.41249 19.8227 9.27749 19.8152 9.13124C19.8077 8.98499 19.7402 8.84624 19.6314 8.73749C19.5152 8.62124 19.3577 8.55374 19.2039 8.55374C19.0689 8.55374 18.9489 8.60249 18.8589 8.69249L17.1227 10.4325V9.09374C17.1227 8.74874 16.8414 8.47124 16.5002 8.47124L16.4964 8.46374ZM13.0727 8.46374C12.7239 8.46374 12.4389 8.74499 12.4389 9.08624V13.3162C12.4389 13.6312 12.7052 13.8862 13.0352 13.89H15.0339C15.3639 13.89 15.6302 13.6312 15.6302 13.3162C15.6302 13.0012 15.3602 12.7462 15.0339 12.7462H13.7102V9.08624C13.7102 8.74124 13.4252 8.46374 13.0727 8.46374ZM10.3352 11.7862H9.0902L9.7127 10.02L10.3352 11.7862Z" fill="#401C1D"/>
</svg>
